<svg width="1600" height="1100" viewBox="0 0 1600 1100" fill="none" xmlns="http://www.w3.org/2000/svg">
  <defs>
    <linearGradient id="bg" x1="0" y1="0" x2="1600" y2="1100" gradientUnits="userSpaceOnUse">
      <stop offset="0" stop-color="#f5f4f2"/>
      <stop offset="1" stop-color="#ebe8e4"/>
    </linearGradient>
    <pattern id="grid" width="48" height="48" patternUnits="userSpaceOnUse">
      <path d="M48 0H0V48" stroke="#ddd8d2" stroke-width="1"/>
    </pattern>
  </defs>

  <rect width="1600" height="1100" fill="url(#bg)"/>
  <rect width="1600" height="1100" fill="url(#grid)" opacity="0.45"/>

  <rect x="200" y="270" width="1200" height="560" fill="#fdfcfb" stroke="#d9d4ce" stroke-width="3"/>
  <rect x="270" y="330" width="1060" height="440" fill="none" stroke="#cdc6be" stroke-width="2"/>

  <rect x="770" y="200" width="60" height="130" fill="#fdfcfb" stroke="#cfc8c0" stroke-width="3"/>
  <path d="M800 130L880 200H720L800 130Z" fill="#fdfcfb" stroke="#cfc8c0" stroke-width="3"/>

  <rect x="760" y="500" width="80" height="270" fill="#f7f4f0" stroke="#cfc8c0" stroke-width="2"/>

  <g stroke="#beb6ad" stroke-width="2">
    <line x1="340" y1="330" x2="340" y2="770"/>
    <line x1="410" y1="330" x2="410" y2="770"/>
    <line x1="480" y1="330" x2="480" y2="770"/>
    <line x1="550" y1="330" x2="550" y2="770"/>
    <line x1="620" y1="330" x2="620" y2="770"/>
    <line x1="690" y1="330" x2="690" y2="770"/>
    <line x1="910" y1="330" x2="910" y2="770"/>
    <line x1="980" y1="330" x2="980" y2="770"/>
    <line x1="1050" y1="330" x2="1050" y2="770"/>
    <line x1="1120" y1="330" x2="1120" y2="770"/>
    <line x1="1190" y1="330" x2="1190" y2="770"/>
    <line x1="1260" y1="330" x2="1260" y2="770"/>

    <line x1="270" y1="410" x2="1330" y2="410"/>
    <line x1="270" y1="500" x2="1330" y2="500"/>
    <line x1="270" y1="590" x2="1330" y2="590"/>
    <line x1="270" y1="680" x2="1330" y2="680"/>
  </g>

  <line x1="150" y1="860" x2="1450" y2="860" stroke="#bcb4ab" stroke-width="3"/>
  <text x="200" y="930" fill="#9b9388" font-family="Georgia, serif" font-size="34" letter-spacing="6">E.A.BOKETOV UNIVERSITY • KARAGANDY</text>
</svg>
